<svg width="141" height="43" viewBox="0 0 141 43" fill="none" xmlns="http://www.w3.org/2000/svg">
<path d="M2.415 41V19.19H8.025L11.4 30.02L12.75 34.61H12.825L14.22 30.02L17.49 19.19H23.13V41H19.62V28.49L19.845 22.805H19.725L17.97 28.295L13.77 41H11.94L7.575 28.295L5.82 22.805H5.715L5.91 28.49V41H2.415ZM34.114 41.225C32.604 41.225 31.289 40.9 30.169 40.25C29.049 39.6 28.179 38.645 27.559 37.385C26.939 36.115 26.629 34.56 26.629 32.72C26.629 30.98 26.954 29.48 27.604 28.22C28.264 26.96 29.164 25.995 30.304 25.325C31.444 24.645 32.734 24.305 34.174 24.305C35.734 24.305 37.069 24.645 38.179 25.325C39.299 25.995 40.159 26.96 40.759 28.22C41.359 29.48 41.659 30.98 41.659 32.72C41.659 34.56 41.324 36.115 40.654 37.385C39.994 38.645 39.094 39.6 37.954 40.25C36.814 40.9 35.534 41.225 34.114 41.225ZM34.174 38.21C35.324 38.21 36.264 37.78 36.994 36.92C37.724 36.06 38.089 34.66 38.089 32.72C38.089 30.92 37.734 29.57 37.024 28.67C36.314 27.77 35.344 27.32 34.114 27.32C32.964 27.32 32.024 27.765 31.294 28.655C30.574 29.545 30.214 30.9 30.214 32.72C30.214 34.57 30.579 35.95 31.309 36.86C32.049 37.76 33.004 38.21 34.174 38.21ZM45.112 41V24.635H48.142L48.532 30.8L48.277 29.555C48.397 28.655 48.632 27.805 48.982 27.005C49.342 26.195 49.877 25.54 50.587 25.04C51.297 24.54 52.247 24.29 53.437 24.29C54.987 24.29 56.187 24.775 57.037 25.745C57.887 26.705 58.312 28.175 58.312 30.155V41H54.772V31.385C54.772 30.445 54.677 29.69 54.487 29.12C54.307 28.55 54.012 28.14 53.602 27.89C53.192 27.63 52.647 27.5 51.967 27.5C51.227 27.5 50.552 27.72 49.942 28.16C49.342 28.59 48.912 29.08 48.652 29.63V41H45.112ZM69.0945 41.225C67.5845 41.225 66.2695 40.9 65.1495 40.25C64.0295 39.6 63.1595 38.645 62.5395 37.385C61.9195 36.115 61.6095 34.56 61.6095 32.72C61.6095 30.98 61.9345 29.48 62.5845 28.22C63.2445 26.96 64.1445 25.995 65.2845 25.325C66.4245 24.645 67.7145 24.305 69.1545 24.305C70.7145 24.305 72.0495 24.645 73.1595 25.325C74.2795 25.995 75.1395 26.96 75.7395 28.22C76.3395 29.48 76.6395 30.98 76.6395 32.72C76.6395 34.56 76.3045 36.115 75.6345 37.385C74.9745 38.645 74.0745 39.6 72.9345 40.25C71.7945 40.9 70.5145 41.225 69.0945 41.225ZM69.1545 38.21C70.3045 38.21 71.2445 37.78 71.9745 36.92C72.7045 36.06 73.0695 34.66 73.0695 32.72C73.0695 30.92 72.7145 29.57 72.0045 28.67C71.2945 27.77 70.3245 27.32 69.0945 27.32C67.9445 27.32 67.0045 27.765 66.2745 28.655C65.5545 29.545 65.1945 30.9 65.1945 32.72C65.1945 34.57 65.5595 35.95 66.2895 36.86C67.0295 37.76 67.9845 38.21 69.1545 38.21ZM87.0305 41.285C85.4105 41.285 84.0205 40.93 82.8605 40.22C81.7005 39.5 80.8105 38.5 80.1905 37.22C79.5805 35.94 79.2755 34.455 79.2755 32.765C79.2755 30.985 79.5905 29.465 80.2205 28.205C80.8505 26.945 81.7255 25.985 82.8455 25.325C83.9655 24.655 85.2555 24.32 86.7155 24.32C88.1655 24.32 89.3805 24.59 90.3605 25.13C91.3505 25.66 92.0905 26.375 92.5805 27.275C93.0705 28.165 93.2955 29.16 93.2555 30.26H89.8505C89.8405 29.82 89.7705 29.42 89.6405 29.06C89.5105 28.69 89.3155 28.38 89.0555 28.13C88.8055 27.87 88.4855 27.67 88.0955 27.53C87.7055 27.39 87.2505 27.32 86.7305 27.32C85.3305 27.31 84.3355 27.79 83.7455 28.76C83.1655 29.73 82.8755 31.04 82.8755 32.69C82.8755 34.57 83.2255 35.975 83.9255 36.905C84.6355 37.825 85.7405 38.29 87.2405 38.3C87.5905 38.3 87.9705 38.2 88.3805 38C88.8005 37.79 89.1555 37.495 89.4455 37.115C89.7455 36.725 89.8905 36.26 89.8805 35.72H93.2555C93.2955 36.87 93.0205 37.86 92.4305 38.69C91.8505 39.52 91.0805 40.16 90.1205 40.61C89.1605 41.06 88.1305 41.285 87.0305 41.285ZM101.029 41.33C99.6095 41.33 98.4695 40.835 97.6095 39.845C96.7495 38.855 96.3195 37.435 96.3195 35.585V24.62H99.8595V34.64C99.8595 35.44 99.9495 36.1 100.129 36.62C100.309 37.14 100.594 37.52 100.984 37.76C101.374 38 101.879 38.12 102.499 38.12C103.249 38.12 103.924 37.905 104.524 37.475C105.134 37.035 105.564 36.54 105.814 35.99V24.62H109.354V41H106.339L105.934 34.82L106.204 36.065C106.084 36.965 105.844 37.815 105.484 38.615C105.134 39.415 104.599 40.07 103.879 40.58C103.169 41.08 102.219 41.33 101.029 41.33ZM113.813 41V24.635H116.843L117.233 30.935L116.918 30.065C116.988 29.405 117.118 28.735 117.308 28.055C117.508 27.375 117.788 26.75 118.148 26.18C118.518 25.61 118.988 25.155 119.558 24.815C120.138 24.465 120.843 24.29 121.673 24.29C121.873 24.29 122.073 24.3 122.273 24.32C122.473 24.34 122.658 24.375 122.828 24.425V28.205C122.488 28.095 122.123 28.025 121.733 27.995C121.353 27.955 121.003 27.935 120.683 27.935C120.293 27.935 119.873 28.015 119.423 28.175C118.973 28.325 118.558 28.555 118.178 28.865C117.798 29.175 117.523 29.56 117.353 30.02V41H113.813ZM131.836 41.225C130.256 41.225 128.886 40.905 127.726 40.265C126.576 39.615 125.691 38.66 125.071 37.4C124.451 36.14 124.141 34.595 124.141 32.765C124.141 30.985 124.466 29.465 125.116 28.205C125.776 26.935 126.681 25.97 127.831 25.31C128.981 24.64 130.301 24.305 131.791 24.305C133.261 24.305 134.516 24.595 135.556 25.175C136.606 25.755 137.406 26.615 137.956 27.755C138.506 28.885 138.781 30.275 138.781 31.925C138.781 32.245 138.771 32.51 138.751 32.72C138.741 32.93 138.726 33.18 138.706 33.47H127.666C127.756 35.14 128.166 36.37 128.896 37.16C129.626 37.94 130.521 38.33 131.581 38.33C132.571 38.33 133.326 38.12 133.846 37.7C134.376 37.27 134.716 36.79 134.866 36.26H138.286C138.196 37.31 137.866 38.21 137.296 38.96C136.726 39.7 135.971 40.265 135.031 40.655C134.101 41.035 133.036 41.225 131.836 41.225ZM129.286 31.055H135.256C135.226 29.855 134.936 28.93 134.386 28.28C133.836 27.62 132.931 27.29 131.671 27.29C130.361 27.29 129.386 27.73 128.746 28.61C128.106 29.48 127.746 30.685 127.666 32.225C127.746 31.775 127.916 31.47 128.176 31.31C128.436 31.14 128.806 31.055 129.286 31.055Z" fill="#0F89D3"/>
<circle cx="63" cy="13" r="5" stroke="#0F89D3" stroke-width="2"/>
<circle cx="53.5" cy="4.5" r="3.5" stroke="#0F89D3" stroke-width="2"/>
</svg>
